<?xml version="1.0" encoding="UTF-8"?><svg xmlns="http://www.w3.org/2000/svg" viewBox="0 0 590 155.94"><defs><style>.cls-1{fill:#dbc34c;stroke:#dbc34c;stroke-miterlimit:10;stroke-width:1.3px;}.cls-2{fill:#dbc04a;}</style></defs><g id="Words"><g id="Knight_Hacks_Logo"><path class="cls-2" d="M587.98,16.87c-1,.5-2,1-3,.5h-13c-4.5,0-4,0-4,3.5v47.5q0,4.5-4.5,4.5h-10.5q-4,0-4-4V22.37q0-5.5-5.5-5.5h-12c-2,0-3-.5-3-2.5V3.37c0-1,0-2,1-2.5,.5-.5,1.5-.5,2.5-.5h53c1.5,0,3,0,3.5,1.5v1c-.5,3-.5,6.5-.5,9.5,0,2,0,3,0,4.5Z"/><path class="cls-2" d="M373.98,.37c.5,1,.5,2.5,.5,4V68.87c0,4,0,4.5-4.5,4s-9,0-13,0c-2.5,0-3.5-.5-3.5-3V3.37c0-1,0-2,.5-3h20Z"/><path class="cls-2" d="M588.48,2.37c-1-1.5-2.5-1-4-1h-54.5V.37h57c1,0,1.5,.5,1.5,2Z"/><path class="cls-2" d="M271.98,.87V.37h20V.87c-.5,.5-1.5,1-2.5,1h-14.5c-1,.5-2,0-3-1Z"/><path class="cls-2" d="M244.48,.37V.87c-.5,.5-1,.5-1,.5-5,.5-10.5,.5-15.5,0-.5,0-1-.5-1.5-.5V.37h18Z"/><path class="cls-2" d="M329.48,.87h0l17.5-.5V.87c-.5,.5-1.5,1-2.5,1h-12.5c-1,0-1.5,0-2.5-1Z"/><path class="cls-2" d="M473.48,.37V.87c-.5,.5-1.5,1-2.5,1h-12.5c-1,0-2-.5-2.5-1V.37h17.5Z"/><path class="cls-2" d="M504.98,.87h0l17-.5V.87c0,.5-.5,.5-1,1-5,.5-10,.5-15.5,0,0-.5-.5-.5-.5-1Z"/><path class="cls-2" d="M587.98,16.87c0-4.5,0-9,.5-13v13h-.5Z"/><path class="cls-2" d="M226.48,1.37h18c1,.5,.5,2,.5,3v30c0,1,0,2,.5,3,1-.5,1.5-1.5,2-2.5,7-10.5,14.5-20.5,21.5-31,.5-1,1.5-2.5,3-3h20c1.5,1,0,2-.5,2.5-7.5,11-15,22.5-22.5,33.5-1.5,1.5-1.5,4.5,0,6,20,28.5,40,57,60,85.5,5.5,8,11.5,16.5,17,24.5,.5,.5,1,1.5,.5,2h-19.5c-1.5,0-3-.5-4-2l-44-62.5c-7.5-10.5-15-21-22.5-32-1-1.5-2-1.5-3,0l-7.5,12c-.5,1-1,2-.5,3v79h1l22-67c1.5,1,2.5,2.5,3.5,4,4,6,8,12,12.5,17.5,1,1,1,3,.5,4.5-2,5-4,10-6.5,15-1,2-.5,2.5,1.5,2.5h17c1.5,0,2.5,0,3.5,1,3.5,5,7,9.5,10.5,14.5-1,1-2,.5-2.5,.5h-33.5c-4,0-4,.5-6,4-3.5,7.5-1,6-9,6h-30.5c-2.5,0-3-.5-3-3v-23c0-2.5-.5-3-3-3h-23.5c-2.5,0-3.5,.5-3.5,3.5v22q0,3.5-3.5,3.5h-12.5c-2,0-3-.5-3-3V84.87c0-2,.5-2.5,2.5-2.5h14c2,0,2.5,1,2.5,3v20.5c0,2.5,.5,3,3,3h23.5c2.5,0,3-.5,3-3V4.37c.5-.5,.5-2,.5-3Z"/><path class="cls-2" d="M329.48,.87h17.5c.5,1,1,2,.5,3V68.87q0,3.5-4,3.5h-11c-2,.5-4-.5-5-2.5-8.5-12-17.5-24-26-36-.5-.5-.5-1.5-2-1.5v44c-1-.5-2-1.5-2.5-2.5l-14.5-20.5c-1-1.5-1.5-3-1.5-5V30.37c0-1.5,.5-3,1.5-4.5l15.5-23c1.5-2.5,2-2.5,4,0l25,33c.5,1,1.5,2,3,2.5V4.37c-1.5-1-1-2.5-.5-3.5Z"/><path class="cls-2" d="M504.98,.87h17c1,1,1,2,1,3V69.87c0,2.5-1,3.5-3.5,3.5h-12.5c-2.5,0-3.5-1-3.5-3v-21.5c0-4,0-4.5-4-4.5h-22q-3.5,0-3.5,4v21.5q0,4-4,4h-11.5q-3.5,0-3.5-3.5V4.37c0-1-.5-2.5,.5-3.5h17.5c1,1,.5,2,.5,3V23.87c0,2.5,.5,3.5,3,3.5h23.5c2.5,0,3-1,3-3V4.37c1-1,.5-2.5,2-3.5Z"/><path class="cls-2" d="M432.48,31.37h14c2,0,3,.5,3,2.5v23c0,1.5-1,3.5-2.5,4.5-11.5,11-28.5,14.5-43.5,9-15.5-5-25-19.5-23.5-38,1.5-16,14-28.5,29.5-31,12-3,24.5,.5,33,9,6,6,6,6.5-1.5,10.5-2,1-4.5,2-6.5,3.5s-2.5,1-3.5-.5c-4.5-6.5-12.5-9-20-6-10,4.5-15,16-10.5,26,4.5,10,16,15,26,10.5,.5,0,.5-.5,1-.5l1.5-.5c1.5-1,2-3,1.5-4.5-.5-2-2-1.5-3-1.5h-10c-2,0-2.5-.5-2.5-2.5v-11c0-2,1-3,3-3l14.5,.5Z"/><path class="cls-2" d="M417.48,110.87c1,0,1.5-1,2-2,6-7.5,11.5-15.5,17.5-23,1-2,3.5-3,5.5-3h19c.5,1,0,1.5-.5,2-8,9.5-16,19.5-24.5,29-1.5,1.5-1.5,3.5-.5,5,0,0,0,.5,.5,.5,8,10.5,16.5,21,24.5,32l2.5,3c-1,1-2.5,.5-3.5,.5h-16c-2,.5-4-1-5-2.5-5-7-10-14-14.5-21-.5-1-1-2-2.5-2.5-3.5,2-5.5,6-5,10.5s0,9,0,13c0,2-.5,3-2.5,3h-12.5c-4,0-3.5,0-3.5-3.5V86.87c0-2.5,.5-3.5,3-3h13c2.5,0,3,.5,3,3v22c-.5,.5-1,1,0,2Z"/><path class="cls-2" d="M493.98,155.37c-10,.5-19.5-2.5-27.5-8-3-2-3-2.5-1-5.5s4-6,6-9c1-1.5,2-2,3.5-.5,5,4.5,11.5,7.5,18,7.5,3,.5,6,0,9-1.5,2-.5,3-2,3-4s-1.5-3-3-4c-4.5-1.5-9.5-3-14-3.5-6-1-11.5-3.5-16-7-8-8-8-21,0-29,1-1,2.5-2,3.5-3,12-7,24.5-6,37-1,2.5,1,5.5,2.5,7.5,4,1.5,1,2,2,.5,4-2.5,3-4.5,6-6.5,9-1,1.5-2.5,1.5-4,.5-5.5-3.5-12-5.5-18.5-5.5-1.5,0-3.5,.5-5,1-2,1-2.5,3-2,5,.5,1,1,1.5,2,2,3,1.5,6.5,2.5,10,3,5,1,9.5,2.5,14.5,4,7,2.5,12,9,12.5,16.5,1,8.5-3,17-10.5,21.5-5.5,3-12.5,4-19,3.5Z"/><path class="cls-2" d="M361.48,155.37h-4c-3,0-5.5-1.5-7-4-8-11.5-16-23-24-34-1.5-2-2-4.5-1-6.5,4-16,14.5-24,30-27,13.5-3,27.5,3,35,15,2,3,2,3.5-1.5,5s-6.5,3-10,5c-1,1-2.5,.5-3-.5,0,0,0-.5-.5-.5-4-7-12.5-10.5-20-7.5-7.5,2.5-13,9.5-13,17.5-1,10.5,6.5,20,17,21h2.5c5.5,0,10.5-3,13-7.5,1.5-2,2.5-2.5,5-1.5s6,3,9,4.5,3.5,2,1.5,5c-6,11-17.5,16.5-29,16Z"/></g></g><g id="Layer_3"><g id="Gold_Dragon"><path class="cls-1" d="M126.61,25.77c.5-.45,.42-1.21-.17-1.55-3.33-1.9-7.29-3.89-12.02-5.62-5.42-1.98-10.36-3.07-14.35-3.69,1.35,.4,3.26,1.05,5.45,2.05,2.5,1.15,4.57,2.41,6.21,3.56,1.93,1.35,3.87,2.43,6.22,4.21,1.92,1.45,3.49,2.79,4.67,3.85,.16,.14,.4,.13,.8,.07l3.2-2.89h0Z"/><path class="cls-1" d="M64.16,118.32l2.59-2.46c.32-.3,.83-.34,1.19-.08,3.8,2.74,13.46,8.79,26.64,8.47,13.15-.31,22.04-6.79,27.48-10.7,9.68-6.95,14.58-15.07,16.79-19.42,1.92-3.88,6.06-15.66,6.69-27.6,.04-.81,.15-3.25-.95-3.67-.6-.22-1.45,.2-2.57,.76-.86,.43-1.48,.89-1.81,1.16-.93,.75-1.61,1.57-2.13,2.22-.81,1-.88,1.23-1.04,1.2-.65-.09-.54-3.83-.39-8.78,.04-1.2,0-2.12,.11-3.45,.15-1.73,.41-3.16,.64-4.19,.02-.07,.05-.14,.11-.19l9.06-9.03c.19-.19,.52-.17,.69,.04,2.5,3.02,4.38,5.73,5.75,7.86,1.13,1.76,2.38,3.73,3.68,6.5,.73,1.57,1.29,3.14,2.29,5.94,7.15,19.95,.35,40.89,.35,40.89-5.89,18.14-18.22,28.94-23.44,33.04-4.64,3.64-20.94,15.46-45.48,16.39-27.42,1.04-46.41-12.23-51.95-16.51-.4-.31-.42-.87-.05-1.21,1.76-1.62,6.39-5.9,8.08-7.46,.35-.32,.91-.32,1.26,0,5.9,5.35,11.81,10.69,17.71,16.04,.35,.31,.9,.32,1.25,0l11.91-10.5c.18-.16,.19-.43,.01-.6l-14.46-14.1c-.16-.16-.16-.41,0-.56h0Z"/><path class="cls-1" d="M78.14,34.9c.74-.65,7.16,2.14,8.39,7.25,.92,3.85-1.36,7.93-2.31,7.84-.36-.04-.45-.67-.92-2.23-1.09-3.64-2.74-7.18-4.4-10.76-.73-1.57-.95-1.94-.76-2.1h0ZM45.27,101.41c1.02-.96,2.17-2.12,3.18-3.06,.11-.1,.14-.26,.1-.4-1.72-5.01-1.06-8.35-.16-10.47,2.17-5.07,9.1-11.12,8.77-13.86-.31-2.55-2.2-2.17-4.28-7.14-.86-2.05-2.13-5.19-1.35-8.96,.63-3.05,2.44-5.72,3.13-5.65,.77,.08-2.04,7.36,.27,12.72,1.66,3.85,4.42,6.08,7.83,8.77,2.48,1.95,3.8,2.6,16.03,9.03,5.63,2.96,10.23,5.43,12.77,9.39,1.45,2.26,2.06,4.69,2.06,4.69,.61,2.41,0,5.78,.32,5.78s16.99-8.61,16.7-8.92-3.05,.04-5.28-.73c-2.34-.81-3.87-2.05-4.66-2.79-.94-1.06-2.01-2.46-2.97-4.2-1.29-2.35-1.59-5.77-2.27-6.14s-2.38,.39-4.19,.1c-2.06-.34-3.52-1.16-4.29-1.66-1.3-1.63-2.7-3.63-4-6.01-1.59-2.9-3.43-7.48-3.31-7.86s1.79-.75,3.16-.96c3.11-.46,5.58,.54,7.91,1.5,2.07,.86,5.3,2.49,8.59,5.54,.85,1.59,1.71,3.44,2.48,5.55,.78,2.13,1.24,5.66,1.69,5.86s2.66-1.08,5.24-.58c2.5,.49,3.99,1.9,4.46,2.38,.69,.99,1.52,2.4,2.1,4.2,.78,2.42,.34,5.62,.66,5.88s5.24-1.36,8.33-4.81c2.69-3,3.99-7.17,3.47-7.49s-5.16-1.75-8.37-4.09c-3.17-2.32-5.11-4.83-6.2-6.5-3.64-4.16-5.77-7.99-7.03-10.71-1.81-3.9-2.76-7.51-3.44-10.12-1.09-4.14-.96-5.06-2-8.64-.13-.44-1.37-4.63-3.48-8.94-3.69-7.55-8.56-12.69-11.16-15.2-1.89-1.82-5.27-5.04-10.57-8.07-7.77-4.43-15.94-6.34-16.54-5.27-.45,.8,3.8,2.51,6.1,7.38,.88,1.86,1.23,4.7,1.33,5.67,.02,.16-.15,.26-.3,.2-1.49-.65-7.72-3.31-12.15-4.45-4.17-1.07-11.15-2.26-11.15-1.87s3.51,4.47,4.69,8.3c.53,1.72,.84,4.38,.92,5.15,.01,.11-.1,.19-.21,.16-1.13-.31-6.14-1.66-9.58-2.06-2.86-.33-7.23-.3-8.51-.28-.15,0-.22,.16-.13,.26,.76,.81,3.12,3.44,4.29,5.77,1.01,2,1.53,3.84,1.81,5.28-4.11,3.56-21.42,19.33-23.61,45.27-2.03,24.07,10.17,41.54,14.05,46.5,.16,.2,.46,.22,.65,.04,2.76-2.58,5.77-5.2,8.52-7.79,.17-.16,.17-.41,0-.56-6.19-5.78-12.56-11.81-18.75-17.58-.18-.16-.17-.43,0-.6,3.91-3.72,7.72-7.06,11.63-10.78,.17-.16,.46-.17,.64-.01,5.18,4.65,10.27,9.2,15.45,13.84,.18,.16,.46,.16,.63,0h0Z"/><path class="cls-1" d="M106.2,49.39l14.55-13.41,9.81-9.04,21.01-6.71c.37-.12,.73,.21,.6,.55l-6.89,18.87-30.02,27.95c-1.75-2.2-3.71-5.04-5.46-8.54-1.82-3.63-2.92-6.96-3.6-9.69h0Z"/><path class="cls-1" d="M86.07,67.62c.94-1,4.78,.53,7.3,2.17,2.17,1.41,5.15,4.07,4.46,5.38-.36,.68-1.59,.78-3.6,.93-2.07,.16-3.33,.25-4.54-.42-1.18-.66-1.71-1.94-2.76-4.51-.85-2.07-1.28-3.11-.86-3.55h0Z"/><path class="cls-1" d="M70.62,81.92c.13-.12,.31-.15,.47-.09,2.57,1.07,5.62,2.56,8.82,4.65,3.13,2.04,5.63,4.14,7.56,5.99,.16,.15,.15,.39-.01,.54-8.99,8.44-17.98,16.88-26.98,25.33-.16,.15-.16,.39,0,.54,4.76,4.64,9.53,9.28,14.29,13.92,.16,.15,.15,.4-.01,.55l-7.89,7.2c-.17,.15-.43,.15-.6,0l-18.25-16.76c-.17-.15-.43-.15-.6,0l-17.08,15.52c-.17,.15-.44,.15-.6,0l-6.47-6.1c-.16-.15-.16-.4,0-.55l17.1-15.86c.17-.15,.16-.4,0-.55-6.32-5.78-12.65-11.56-18.97-17.34-.17-.15-.17-.4,0-.56l7.59-6.99c.16-.15,.43-.15,.6,0,5.13,4.63,10.27,9.26,15.41,13.88,.17,.15,.44,.15,.6,0,8.34-7.77,16.69-15.54,25.03-23.31h0Z"/></g></g></svg>