<?xml version="1.0" encoding="UTF-8"?><svg id="Layer_1" xmlns="http://www.w3.org/2000/svg" viewBox="0 0 114.37 57.46"><defs><style>.cls-1,.cls-2{fill:none;stroke:#ed1c24;stroke-miterlimit:10;}.cls-2{stroke-width:5px;}.cls-3{fill:#ed1c24;}</style></defs><circle class="cls-2" cx="15.1" cy="29.4" r="12.6"/><circle class="cls-2" cx="99.28" cy="29.4" r="12.6"/><path class="cls-3" d="M15.22,0c2.9,1.03,6.03,2.32,8.87,3.52,1.71,.78,4.1,1.84,5.85,2.46,3.1,1.34,5.33,3.49,7.05,6.66,0,0-.25,.43-.25,.43-2.51,.14-4.59-.44-6.57-1.21-2.01-.75-3.49-2.36-5.19-3.59,0,0-2.55-1.87-2.55-1.87-2.45-1.88-5.12-3.95-7.45-5.96,0,0,.25-.43,.25-.43h0Z"/><path class="cls-3" d="M100.82,.43c-2.33,2.01-5.01,4.08-7.45,5.96-1.52,1.1-3.63,2.64-5.03,3.86-2.69,2.03-5.67,2.9-9.28,2.81,0,0-.25-.43-.25-.43,1.12-2.25,2.66-3.77,4.31-5.1,1.65-1.37,3.78-1.86,5.69-2.73,0,0,2.89-1.29,2.89-1.29C94.55,2.32,97.67,1.03,100.57,0c0,0,.25,.43,.25,.43h0Z"/><path class="cls-3" d="M35.66,33.69c1.93,3.77,5.81,12.32,10.87,11.13,0,0,.17-.06,.17-.06h.56c4.46-.08,7.35-4.88,9.27-8.7,0,0,2.59-5.31,2.59-5.31,1.61,3.81,3.24,9.02,6.73,11.5,6.09,5.53,12.06-3.26,15.62-7.77-1.74,7.83-8.58,17.76-17.55,12.32-3.35-1.94-5.99-5.07-7.45-8.58,0,0,4.84,.11,4.84,.11-2.48,5.45-7.64,11.8-14.47,10.88,0,0,.73-.05,.73-.05-8.25,1.15-11.63-8.9-11.91-15.48h0Z"/><g id="Layer_2"><line class="cls-1" x1="50.58" y1="46.49" x2="45.98" y2="57.26"/><line class="cls-1" x1="41.58" y1="46.49" x2="45.99" y2="56.84"/><line class="cls-1" x1="64.15" y1="46.49" x2="68.75" y2="57.26"/><line class="cls-1" x1="73.15" y1="46.49" x2="68.74" y2="56.84"/></g></svg>
